HIERARCHY
ROOT Hips
{
	OFFSET 0.00000 0.00000 0.00000
	CHANNELS 6 Xposition Yposition Zposition Zrotation Yrotation Xrotation 
	JOINT LHipJoint
	{
		OFFSET 0 0 0
		CHANNELS 3 Zrotation Yrotation Xrotation
		JOINT LeftUpLeg
		{
			OFFSET 1.49846 -1.74315 1.08250
			CHANNELS 3 Zrotation Yrotation Xrotation
			JOINT LeftLeg
			{
				OFFSET 2.40966 -6.62050 0.00000
				CHANNELS 3 Zrotation Yrotation Xrotation
				JOINT LeftFoot
				{
					OFFSET 2.68066 -7.36505 0.00000
					CHANNELS 3 Zrotation Yrotation Xrotation
					JOINT LeftToeBase
					{
						OFFSET 0.14291 -0.39265 2.35870
						CHANNELS 3 Zrotation Yrotation Xrotation
						End Site
						{
							OFFSET 0.00000 -0.00000 1.20470
						}
					}
				}
			}
		}
	}
	JOINT RHipJoint
	{
		OFFSET 0 0 0
		CHANNELS 3 Zrotation Yrotation Xrotation
		JOINT RightUpLeg
		{
			OFFSET -1.46318 -1.74316 1.08250
			CHANNELS 3 Zrotation Yrotation Xrotation
			JOINT RightLeg
			{
				OFFSET -2.39759 -6.58734 0.00000
				CHANNELS 3 Zrotation Yrotation Xrotation
				JOINT RightFoot
				{
					OFFSET -2.63570 -7.24154 0.00000
					CHANNELS 3 Zrotation Yrotation Xrotation
					JOINT RightToeBase
					{
						OFFSET -0.17578 -0.48294 2.47180
						CHANNELS 3 Zrotation Yrotation Xrotation
						End Site
						{
							OFFSET -0.00000 -0.00000 1.26600
						}
					}
				}
			}
		}
	}
	JOINT LowerBack
	{
		OFFSET 0 0 0
		CHANNELS 3 Zrotation Yrotation Xrotation
		JOINT Spine
		{
			OFFSET 0.00843 2.19877 -0.20423
			CHANNELS 3 Zrotation Yrotation Xrotation
			JOINT Spine1
			{
				OFFSET -0.03080 2.21436 -0.05138
				CHANNELS 3 Zrotation Yrotation Xrotation
				JOINT Neck
				{
					OFFSET 0 0 0
					CHANNELS 3 Zrotation Yrotation Xrotation
					JOINT Neck1
					{
						OFFSET -0.04063 1.58841 0.30440
						CHANNELS 3 Zrotation Yrotation Xrotation
						JOINT Head
						{
							OFFSET 0.09277 1.59484 -0.39337
							CHANNELS 3 Zrotation Yrotation Xrotation
							End Site
							{
								OFFSET 0.03488 1.66530 -0.17040
							}
						}
					}
				}
				JOINT LeftShoulder
				{
					OFFSET 0 0 0
					CHANNELS 3 Zrotation Yrotation Xrotation
					JOINT LeftArm
					{
						OFFSET 3.03849 1.31522 0.02556
						CHANNELS 3 Zrotation Yrotation Xrotation
						JOINT LeftForeArm
						{
							OFFSET 5.25537 -0.00000 0.00000
							CHANNELS 3 Zrotation Yrotation Xrotation
							JOINT LeftHand
							{
								OFFSET 3.38855 -0.00000 -0.00000
								CHANNELS 3 Zrotation Yrotation Xrotation
								JOINT LeftFingerBase
								{
									OFFSET 0 0 0
									CHANNELS 3 Zrotation Yrotation Xrotation
									JOINT LeftHandIndex1
									{
										OFFSET 0.61452 -0.00000 0.00000
										CHANNELS 3 Zrotation Yrotation Xrotation
										End Site
										{
											OFFSET 0.49544 -0.00000 0.00000
										}
									}
								}
								JOINT LThumb
								{
									OFFSET 0 0 0
									CHANNELS 3 Zrotation Yrotation Xrotation
									End Site
									{
										OFFSET 0.50300 -0.00000 0.50300
									}
								}
							}
						}
					}
				}
				JOINT RightShoulder
				{
					OFFSET 0 0 0
					CHANNELS 3 Zrotation Yrotation Xrotation
					JOINT RightArm
					{
						OFFSET -3.06926 1.12091 -0.13185
						CHANNELS 3 Zrotation Yrotation Xrotation
						JOINT RightForeArm
						{
							OFFSET -5.38183 -0.00000 0.00000
							CHANNELS 3 Zrotation Yrotation Xrotation
							JOINT RightHand
							{
								OFFSET -3.16988 -0.00000 0.00000
								CHANNELS 3 Zrotation Yrotation Xrotation
								JOINT RightFingerBase
								{
									OFFSET 0 0 0
									CHANNELS 3 Zrotation Yrotation Xrotation
									JOINT RightHandIndex1
									{
										OFFSET -0.63768 -0.00000 0.00000
										CHANNELS 3 Zrotation Yrotation Xrotation
										End Site
										{
											OFFSET -0.51411 -0.00000 0.00000
										}
									}
								}
								JOINT RThumb
								{
									OFFSET 0 0 0
									CHANNELS 3 Zrotation Yrotation Xrotation
									End Site
									{
										OFFSET -0.52196 -0.00000 0.52196
									}
								}
							}
						}
					}
				}
			}
		}
	}
}
MOTION
Frames: 14
Frame Time: 0.0285714
0.00 0.00 0.00 -7.4711 -14.2721 97.7642 0.0000 0.0000 0.0000 -19.6407 -12.1541 -20.3655 2.6884 10.1726 29.5376 0.0455 1.6072 3.7913 0.0998 -2.0368 -5.6073 0.0000 0.0000 0.0000 15.7365 10.4935 -16.5120 -2.9697 -10.6459 31.0946 -0.5001 -9.9116 -20.4241 -0.1999 -2.8791 7.9423 3.3768 4.7505 1.9818 -1.8962 6.5549 -5.3544 -4.3042 3.0790 -6.0864 -6.1796 -8.5696 -24.4352 11.5763 -13.2507 25.0850 3.0177 -4.7651 13.9077 0.0000 0.0000 0.0000 -38.9408 28.5238 44.1852 110.2549 -58.3916 -77.4466 -0.0000 -0.0000 6.8396 61.4157 2.5325 4.6363 -7.1250 0.0000 -0.0000 27.9917 33.9659 -8.4588 0.0000 0.0000 0.0000 11.9494 67.0918 -5.8818 -8.8886 14.9827 -1.1711 0.0000 -0.0000 -34.6979 -12.5149 -10.9014 2.4038 7.1250 -0.0000 -0.0000 12.8574 -40.7995 1.3572
0.00 0.00 0.00 -12.2390 -12.1576 101.5710 0.0000 0.0000 0.0000 -21.5001 -15.1584 -16.1731 1.2416 7.0656 19.9098 -1.1479 18.5653 -6.4111 0.0384 1.2645 3.4768 0.0000 0.0000 0.0000 5.0143 22.2671 -21.8413 -3.5813 -11.5814 34.2667 -2.2646 -7.3490 -31.7957 -0.6190 -5.0349 14.0080 5.7750 5.4693 1.8569 5.5288 8.2282 -6.8131 1.9122 3.9013 -8.2876 -2.1120 -5.6284 -25.8217 7.8372 -9.5635 25.4094 1.6050 -3.2522 13.4088 0.0000 0.0000 0.0000 -40.9311 -12.3010 38.0750 96.3463 -59.8473 -65.4932 -0.0000 0.0000 -7.0797 33.1391 13.7819 8.8404 -7.1250 0.0000 -0.0000 5.4338 46.2355 0.1662 0.0000 0.0000 0.0000 16.5883 73.0346 8.5008 -10.6928 17.8158 -1.6807 0.0000 -0.0000 -31.9173 -13.8424 -12.1590 2.9710 7.1250 -0.0000 -0.0000 12.0008 -42.1784 0.8488
0.00 0.00 0.00 -10.2494 -12.0708 101.4960 0.0000 0.0000 0.0000 -21.3111 -14.5565 -16.6007 1.2067 6.9691 19.6239 -0.9108 16.6700 -4.7353 0.0283 1.0852 2.9832 0.0000 0.0000 0.0000 4.2094 23.8510 -21.5943 -3.5198 -11.4924 33.9590 -2.5982 -7.3486 -33.7185 -0.7491 -5.5283 15.4216 4.9448 5.0639 1.0632 5.4973 7.6259 -7.4440 2.4289 3.6619 -8.6139 -1.9206 -6.0727 -23.8287 7.7479 -10.1851 25.0941 1.4571 -3.5847 12.9014 -0.0000 -0.0000 0.0000 -45.2355 -18.3686 43.9688 76.5656 -59.3069 -48.3926 -0.0000 -0.0000 2.5441 46.2862 13.1784 13.4121 -7.1250 0.0000 -0.0000 18.4808 47.8038 1.3211 -0.0000 -0.0000 0.0000 18.5075 70.9751 12.4104 -11.3964 18.8934 -1.9023 0.0000 -0.0000 -34.5448 -13.8861 -12.2585 3.0047 7.1250 -0.0000 -0.0000 11.9863 -42.2825 0.8165
0.00 0.00 0.00 -4.4732 -10.2432 100.7290 0.0000 0.0000 0.0000 -14.3452 -17.4904 -18.9862 2.0045 8.8754 25.4064 -0.8393 16.2550 -9.3552 0.0993 2.0324 5.5951 0.0000 0.0000 0.0000 10.9387 16.6693 -21.7184 -2.7032 -10.1983 29.6214 -0.8571 -10.2621 -24.0409 -0.3548 -3.8271 10.5907 -3.5288 6.6657 -4.9012 -0.2370 9.4317 -12.4619 1.1407 5.1739 -11.1811 -7.4299 -10.1775 -20.1266 6.3784 -13.5397 23.7888 1.3209 -5.8596 12.1361 -0.0000 -0.0000 0.0000 -61.8076 -31.6201 72.2831 47.2153 -51.8087 -23.9675 -0.0000 -0.0000 12.0338 63.4676 16.0896 29.0334 -7.1250 0.0000 -0.0000 42.8973 57.1669 14.5836 -0.0000 -0.0000 0.0000 29.2841 41.1499 24.0241 -13.4939 22.0065 -2.6355 0.0000 -0.0000 -43.2763 -11.5653 -11.4921 2.3347 7.1250 -0.0000 -0.0000 13.8204 -41.2999 1.2888
0.00 0.00 0.00 -8.4259 -7.7254 106.6480 0.0000 0.0000 0.0000 -12.7795 -16.5877 -22.4982 2.0181 8.9037 25.4946 -0.7081 14.7090 -5.3252 0.0038 0.3988 1.0957 0.0000 0.0000 0.0000 12.9094 12.3286 -26.1150 -2.6692 -10.1393 29.4291 0.0438 -9.4578 -12.6862 -0.0219 -0.9550 2.6251 -2.6021 3.4178 -3.0262 0.6494 4.8127 -12.2093 1.7749 2.7536 -11.6772 -7.8369 -7.2670 -19.2614 9.0061 -9.7894 19.4477 3.0171 -4.0621 10.2454 -0.0000 -0.0000 0.0000 -45.0622 -19.7804 57.0053 75.6292 -59.2051 -47.5878 -0.0000 -0.0000 12.2920 65.7346 14.2149 28.5785 -7.1250 0.0000 -0.0000 44.3932 55.4352 13.2557 -0.0000 -0.0000 0.0000 31.6835 51.6688 26.1422 -17.3002 27.2518 -4.2239 0.0000 -0.0000 -48.1511 -12.6739 -9.1772 2.0541 7.1250 -0.0000 -0.0000 12.3402 -39.0940 1.8284
0.00 0.00 0.00 -10.8259 -6.8747 105.7630 0.0000 0.0000 0.0000 -14.2258 -16.6399 -21.4126 1.9832 8.8309 25.2678 -0.7014 14.6501 -6.0244 0.0003 0.1074 0.2951 0.0000 0.0000 0.0000 12.5627 10.3246 -23.9729 -2.8069 -10.3756 30.2019 0.0598 -9.0095 -11.6800 -0.0004 -0.1280 0.3517 -1.1909 2.7649 -0.0837 1.1485 3.9115 -10.7777 1.4966 2.1410 -11.6532 -5.9009 -4.8743 -23.1335 6.8315 -6.4594 21.1340 2.4146 -2.5397 11.0979 -0.0000 -0.0000 0.0000 -46.1366 -12.7687 35.4872 99.9647 -59.6215 -68.6187 -0.0000 -0.0000 4.0773 54.9802 10.1649 14.1364 -7.1250 0.0000 -0.0000 26.4066 45.5111 0.3585 -0.0000 -0.0000 0.0000 29.8658 58.5019 24.6516 -16.4529 26.1308 -3.8432 0.0000 -0.0000 -49.7927 -12.4111 -9.3188 2.0409 7.1250 -0.0000 -0.0000 12.5932 -39.2150 1.8290
0.00 0.00 0.00 -11.5463 -5.9080 105.2920 0.0000 0.0000 0.0000 -15.3279 -13.3060 -21.7745 1.8776 8.6064 24.5716 -0.5639 13.5397 -1.6221 0.0011 0.2135 0.5867 0.0000 0.0000 0.0000 13.2661 6.7635 -23.0075 -3.0921 -10.8427 31.7510 0.1496 -8.8896 -9.2976 -0.0037 -0.3907 1.0736 -1.7119 3.5123 -0.0008 2.1505 5.0342 -10.3779 2.7470 2.8136 -11.4598 -4.0162 -3.2034 -24.1591 3.9385 -4.0118 21.3109 1.4451 -1.6321 11.0544 0.0000 -0.0000 0.0000 -51.8064 -18.9222 21.1888 84.6123 -59.8900 -55.3359 -0.0000 0.0000 -23.6956 39.6342 17.7646 14.1825 -7.1250 0.0000 -0.0000 12.0892 52.1670 2.1589 0.0000 -0.0000 0.0000 25.9784 57.4488 21.9323 -15.9288 25.4240 -3.6153 0.0000 -0.0000 -49.4981 -12.4583 -9.2466 2.0332 7.1250 -0.0000 -0.0000 12.5378 -39.1468 1.8421
0.00 0.00 0.00 -11.9457 -5.1870 104.2590 0.0000 0.0000 0.0000 -15.6439 -12.1708 -20.8860 1.7791 8.3900 23.9049 -0.6038 14.3433 -0.4634 0.0011 0.2182 0.5995 0.0000 0.0000 0.0000 13.5281 6.5026 -21.9967 -3.2172 -11.0386 32.4103 0.1836 -8.9134 -8.2753 -0.0041 -0.4137 1.1366 -1.7033 3.9334 0.5750 2.9456 5.6927 -9.9111 3.4997 3.1796 -11.4227 -3.1823 -2.6634 -24.2777 2.8661 -3.2733 21.0596 1.0362 -1.3692 10.9114 -0.0000 0.0000 0.0000 -51.0447 -26.6459 18.3330 56.4830 -55.2975 -31.4317 -0.0000 0.0000 -34.9139 26.2242 23.3385 11.0422 -7.1250 0.0000 -0.0000 -3.1806 55.6380 -0.8310 -0.0000 0.0000 0.0000 23.4739 57.1906 20.6864 -15.3830 24.6770 -3.3842 0.0000 -0.0000 -49.4363 -12.1604 -9.5183 2.0408 7.1250 -0.0000 -0.0000 12.8491 -39.3943 1.8098
0.00 0.00 0.00 -1.2760 -4.6851 101.6750 0.0000 0.0000 0.0000 -13.2570 -12.8976 -23.7410 2.7329 10.2496 29.7888 -0.1940 7.9029 -1.4324 0.0341 -1.1912 -3.2750 0.0000 0.0000 0.0000 18.0381 9.4817 -21.4055 -2.6050 -10.0263 29.0619 0.1129 -7.5645 -7.7401 -0.0080 0.5758 -1.5822 -4.4217 1.3152 -0.1440 -1.0836 1.4559 -12.2863 1.0949 1.1595 -13.3484 -8.9921 -6.3747 -25.2455 7.4895 -7.3538 19.5193 2.9616 -3.0767 11.1039 0.0000 0.0000 0.0000 16.4406 -64.1936 -29.5296 37.4591 -46.4904 -16.5722 -0.0000 -0.0000 5.1900 13.5723 -0.8509 -0.2054 -7.1250 0.0000 -0.0000 -10.1160 29.0374 3.9910 0.0000 0.0000 0.0000 -14.0320 58.0126 -23.9115 -33.5399 43.7409 -13.7939 0.0000 -0.0000 -9.2144 -17.1194 10.8081 -3.3056 7.1250 -0.0000 -0.0000 7.0208 -18.7304 4.4278
0.00 0.00 0.00 -0.5584 -4.3370 103.6480 0.0000 0.0000 0.0000 -10.2793 -20.7851 -28.9865 2.6999 10.1926 29.6026 -0.4520 13.5208 -12.0263 0.0032 0.3676 1.0099 0.0000 0.0000 0.0000 14.7774 21.0516 -23.8563 -2.4846 -9.8099 28.3633 -0.1741 -9.3633 -16.0191 -0.0040 -0.4076 1.1200 -5.7930 1.4885 5.0884 -0.6860 1.3295 -9.9435 2.2438 1.2290 -13.9028 -9.9945 -5.8813 -13.1453 7.9101 -7.1666 12.3478 3.4622 -3.3088 6.5674 -0.0000 0.0000 0.0000 -38.6656 -18.6769 37.7385 88.0536 -59.9857 -58.3144 -0.0000 0.0000 -9.9617 32.0142 6.0342 3.7603 -7.1250 0.0000 -0.0000 4.4917 37.0536 -0.8803 -0.0000 0.0000 0.0000 38.9673 16.3026 23.0510 -81.6978 59.7379 -52.8164 0.0000 -0.0000 -13.6802 -20.1731 16.4614 -5.9436 7.1250 -0.0000 -0.0000 5.0675 -12.5573 3.8600
0.00 0.00 0.00 -0.7383 -4.8304 97.7264 0.0000 0.0000 0.0000 -17.4643 -1.6940 -18.7935 3.3619 11.2590 33.1585 0.2665 5.5894 9.4003 0.1245 -2.2741 -6.2639 0.0000 0.0000 0.0000 19.1386 6.8996 -14.8767 -3.2261 -11.0524 32.4566 -0.0021 -6.1688 4.3787 -0.0048 0.4463 -1.2262 -4.7729 0.7163 -2.0986 -0.8541 0.7410 -11.5312 1.6753 0.8034 -11.2180 -9.4061 -5.5957 -21.9891 7.7722 -6.2043 13.9214 3.3091 -2.6450 8.4702 0.0000 0.0000 0.0000 -38.3936 12.0633 49.7132 39.0708 -47.5097 -17.7510 -0.0000 -0.0000 19.2158 35.3872 -2.3295 -1.6538 -7.1250 0.0000 -0.0000 6.7318 27.1073 -2.9439 0.0000 0.0000 0.0000 40.2392 -10.4691 53.0425 -30.7729 41.5467 -11.9189 0.0000 0.0000 0.3474 -14.6705 17.0017 -4.3774 7.1250 -0.0000 -0.0000 8.7454 -12.5909 6.7091
0.00 0.00 0.00 0.3078 -5.1762 92.3240 0.0000 0.0000 0.0000 -19.2683 6.7150 -9.3336 6.8523 15.2063 48.3136 1.1840 5.3964 19.4874 0.0356 -1.2180 -3.3488 0.0000 0.0000 0.0000 19.6602 -4.7803 -6.9482 -6.9836 -15.3180 48.8122 -0.8169 -11.7326 16.9565 -0.2232 -3.0409 8.3926 -2.4615 -0.0770 -5.6405 -1.2657 -0.1993 -11.3549 0.0357 0.0437 -8.8208 -8.8425 -4.9511 -28.6196 7.4144 -5.4530 25.6532 3.3684 -2.1546 13.9835 0.0000 -0.0000 0.0000 -22.9635 12.2635 55.9126 16.2638 -25.8771 -3.7604 -0.0000 -0.0000 16.7549 15.5269 -3.2220 -0.8946 -7.1250 0.0000 -0.0000 -8.4292 26.6156 3.7982 0.0000 -0.0000 0.0000 22.6988 -12.2513 68.9099 -19.0585 29.4913 -5.0596 0.0000 -0.0000 -18.8326 -6.0118 11.6964 -1.2230 7.1250 -0.0000 -0.0000 14.7261 -18.4263 9.6398
0.00 0.00 0.00 0.9631 -5.0619 98.0911 0.0000 0.0000 0.0000 -21.1143 2.6404 -4.6726 7.1488 15.4560 49.4351 2.1545 8.2638 26.3759 0.0040 0.4065 1.1168 0.0000 0.0000 0.0000 21.1910 -3.9502 -5.8043 -8.7263 -16.6283 55.1388 -1.6913 -17.2130 24.6100 -0.8628 -5.9229 16.5610 5.7587 -3.4334 -8.2815 -2.8643 -5.2522 -9.9947 -6.3347 -3.2994 -6.7508 -10.9694 -2.3324 -32.0811 11.0324 -2.0847 34.8674 6.7743 -0.6755 18.9834 0.0000 -0.0000 0.0000 13.8568 18.6636 55.4064 9.0541 -15.2467 -1.2143 -0.0000 -0.0000 13.8448 -38.3752 4.5738 -3.6133 -7.1250 0.0000 -0.0000 -44.8021 28.7272 26.2907 0.0000 -0.0000 0.0000 -9.7234 4.3926 69.4085 -15.0986 24.2833 -3.2664 0.0000 -0.0000 -22.0115 22.4597 0.8000 0.3307 7.1250 -0.0000 -0.0000 35.5065 -27.4077 18.8147
0.00 0.00 0.00 1.6316 -4.0561 106.1620 0.0000 0.0000 0.0000 -21.5511 -12.4485 -10.7280 4.1205 12.3190 36.8702 1.1226 2.3430 19.3843 0.0164 0.8277 2.2747 0.0000 0.0000 0.0000 24.2508 8.4146 -10.5764 -4.6030 -12.9222 39.0780 -1.1658 -14.0365 20.3032 -0.7827 -5.6480 15.7665 7.4445 -2.7488 -13.2895 -3.3391 -4.7418 -9.0775 -8.2070 -3.0116 -3.1504 -14.8694 -1.5707 -18.2541 12.3662 -1.4665 33.1749 7.6026 -0.8668 14.7105 -0.0000 -0.0000 0.0000 30.0132 10.5068 36.0714 11.1555 -18.5262 -1.8250 -0.0000 -0.0000 1.5712 -34.5641 7.2859 -4.9933 -7.1250 0.0000 -0.0000 -44.8658 32.3097 19.9461 -0.0000 -0.0000 0.0000 -26.6337 8.4712 45.8361 -14.9458 24.0705 -3.2038 0.0000 -0.0000 -18.5111 25.1540 -0.2733 -0.1283 7.1250 -0.0000 -0.0000 37.3809 -27.9895 19.6992
